{"glyphs":{":":{"x_min":0,"x_max":278,"ha":278,"o":"m 197 45 q 197 21 180 3 q 163 -14 138 -14 q 113 -14 96 3 q 79 21 79 45 q 79 70 96 87 q 113 104 138 104 q 163 104 180 87 q 197 70 197 45 z m 197 410 q 197 385 180 368 q 163 351 138 351 q 113 351 96 368 q 79 385 79 410 q 79 434 96 452 q 113 469 138 469 q 163 469 180 452 q 197 434 197 410 z"},"$":{"x_min":0,"x_max":500,"ha":500,"o":"m 235 -10 q 183 -9 126 2 q 70 13 43 25 l 43 181 l 75 181 l 92 88 q 107 68 149 50 q 191 32 235 30 l 235 306 q 177 326 153 338 q 130 349 111 363 q 93 377 79 396 q 66 416 59 440 q 52 465 52 495 q 52 565 102 610 q 152 654 235 661 l 235 724 l 275 724 l 275 662 q 350 659 425 641 l 425 505 l 393 505 l 379 585 q 364 599 335 609 q 305 619 275 621 l 275 388 l 321 372 q 402 342 436 298 q 469 254 469 189 q 469 104 417 51 q 364 -1 275 -8 l 275 -76 l 235 -76 z m 386 161 q 386 207 363 237 q 339 267 275 291 l 275 32 q 329 41 357 73 q 386 105 386 161 z m 134 521 q 134 492 143 472 q 153 452 171 437 q 189 422 235 403 l 235 619 q 186 613 160 587 q 134 561 134 521 z"},"?":{"x_min":0,"x_max":444,"ha":444,"o":"m 215 171 l 176 171 l 163 334 l 233 348 q 275 356 294 391 q 313 425 313 490 q 313 562 287 592 q 261 621 196 621 q 141 621 101 597 l 84 517 l 52 517 l 52 641 q 129 662 196 662 q 403 662 403 496 q 403 417 364 368 q 324 320 249 304 l 221 298 z m 259 45 q 259 21 242 3 q 225 -14 200 -14 q 175 -14 158 3 q 141 21 141 45 q 141 70 158 87 q 175 104 200 104 q 225 104 242 87 q 259 70 259 45 z"},"<":{"x_min":0,"x_max":564,"ha":564,"o":"m 50 320 l 50 344 l 515 573 l 515 523 l 120 332 l 515 141 l 515 91 z"},"'":{"x_min":0,"x_max":180,"ha":180,"o":"m 42 655 l 138 655 l 108 420 l 72 420 z"},"=":{"x_min":0,"x_max":564,"ha":564,"o":"m 515 257 l 515 207 l 50 207 l 50 257 z m 515 457 l 515 407 l 50 407 l 50 457 z"},"a":{"x_min":0,"x_max":444,"ha":444,"o":"m 227 469 q 302 469 338 438 q 373 408 373 344 l 373 34 l 430 22 l 430 0 l 304 0 l 295 46 q 239 -10 153 -10 q 35 -10 35 127 q 35 173 53 203 q 71 233 110 249 q 149 265 223 266 l 292 268 l 292 340 q 292 387 275 410 q 257 432 221 432 q 172 432 132 409 l 115 352 l 88 352 l 88 452 q 167 469 227 469 z m 292 234 l 228 232 q 163 229 139 207 q 116 184 116 130 q 116 44 186 44 q 219 44 243 52 q 268 59 292 71 z"},"L":{"x_min":0,"x_max":611,"ha":611,"o":"m 308 629 l 207 616 l 207 42 l 336 42 q 440 42 489 52 l 519 188 l 551 188 l 542 0 l 29 0 l 29 26 l 113 39 l 113 616 l 29 629 l 29 655 l 308 655 z"},"3":{"x_min":0,"x_max":500,"ha":500,"o":"m 461 178 q 461 90 400 40 q 340 -10 229 -10 q 136 -10 53 11 l 48 149 l 80 149 l 102 57 q 121 46 156 39 q 191 31 221 31 q 298 31 334 66 q 371 101 371 183 q 371 248 337 281 q 304 314 233 318 l 163 322 l 163 362 l 233 366 q 288 369 314 400 q 341 432 341 495 q 341 561 312 591 q 284 621 221 621 q 195 621 167 614 q 139 607 117 595 l 100 515 l 68 515 l 68 641 q 116 654 151 658 q 187 662 221 662 q 431 662 431 501 q 431 433 394 393 q 356 353 288 343 q 377 333 419 292 q 461 251 461 178 z"},";":{"x_min":0,"x_max":278,"ha":278,"o":"m 197 410 q 197 385 180 368 q 163 351 138 351 q 113 351 96 368 q 79 385 79 410 q 79 434 96 452 q 113 469 138 469 q 163 469 180 452 q 197 434 197 410 z m 201 24 q 201 -43 162 -88 q 124 -133 52 -154 l 52 -116 q 138 -89 138 -34 q 138 -24 130 -16 q 123 -8 105 0 q 72 17 72 49 q 72 75 89 89 q 105 103 131 103 q 162 103 182 81 q 201 59 201 24 z"},"J":{"x_min":0,"x_max":389,"ha":389,"o":"m 200 616 l 116 629 l 116 655 l 368 655 l 368 629 l 294 616 l 294 211 q 294 146 274 96 q 254 47 213 19 q 172 -10 122 -10 q 60 -10 21 5 l 21 124 l 53 124 l 68 56 q 77 45 94 39 q 111 32 132 32 q 200 32 200 125 z"},"V":{"x_min":0,"x_max":722,"ha":722,"o":"m 711 655 l 711 629 l 639 616 l 376 -15 l 351 -15 l 85 616 l 11 629 l 11 655 l 276 655 l 276 629 l 188 616 l 386 134 l 584 616 l 498 629 l 498 655 z"},"\"":{"x_min":0,"x_max":408,"ha":408,"o":"m 250 655 l 346 655 l 316 420 l 280 420 z m 62 655 l 158 655 l 128 420 l 92 420 z"},"7":{"x_min":0,"x_max":500,"ha":500,"o":"m 98 500 l 66 500 l 66 655 l 471 655 l 471 617 l 179 0 l 116 0 l 403 580 l 115 580 z"},"S":{"x_min":0,"x_max":556,"ha":556,"o":"m 68 176 l 100 176 l 117 88 q 135 65 179 47 q 223 30 266 30 q 334 30 373 65 q 411 100 411 161 q 411 196 396 219 q 381 242 357 258 q 333 274 302 285 q 271 296 239 307 q 207 318 176 332 q 145 346 121 367 q 97 388 82 419 q 67 450 67 495 q 67 573 125 618 q 184 662 288 662 q 367 662 460 641 l 460 505 l 428 505 l 411 585 q 361 621 288 621 q 223 621 186 594 q 149 568 149 521 q 149 489 164 468 q 179 447 203 432 q 227 417 258 407 q 289 396 322 385 q 354 373 385 359 q 416 344 440 322 q 464 300 479 268 q 494 236 494 189 q 494 94 436 42 q 378 -10 269 -10 q 216 -10 163 0 q 109 9 68 25 z"},"}":{"x_min":0,"x_max":480,"ha":480,"o":"m 91 -134 l 91 -111 l 121 -111 q 166 -111 184 -84 q 203 -58 203 -6 l 203 157 q 203 205 228 238 q 253 271 297 281 l 297 282 q 254 292 229 325 q 203 359 203 405 l 203 566 q 203 618 184 644 q 166 671 121 671 l 91 671 l 91 694 l 157 694 q 221 694 252 657 q 284 620 284 551 l 284 407 q 284 294 389 292 l 389 270 q 336 268 310 240 q 284 211 284 154 l 284 10 q 284 -58 251 -96 q 218 -134 157 -134 z"},"Z":{"x_min":0,"x_max":611,"ha":611,"o":"m 48 46 l 415 613 l 293 613 q 172 613 127 603 l 112 500 l 78 500 l 78 655 l 524 655 l 524 613 l 154 41 l 296 41 q 353 41 411 46 q 469 52 493 57 l 522 182 l 556 182 l 543 0 l 48 0 z"},"x":{"x_min":0,"x_max":500,"ha":500,"o":"m 488 22 l 488 0 l 280 0 l 280 22 l 341 33 l 235 196 l 111 32 l 174 22 l 174 0 l 9 0 l 9 22 l 62 30 l 213 229 l 80 425 l 26 437 l 26 459 l 234 459 l 234 437 l 173 424 l 261 292 l 363 425 l 300 437 l 300 459 l 465 459 l 465 437 l 412 427 l 283 260 l 434 32 z"},")":{"x_min":0,"x_max":333,"ha":333,"o":"m 32 -213 l 32 -172 q 87 -140 124 -88 q 161 -36 178 39 q 195 115 195 241 q 195 369 178 440 q 162 512 127 565 q 92 619 32 653 l 32 694 q 130 642 184 581 q 238 521 264 439 q 289 357 289 241 q 289 125 264 43 q 238 -40 184 -100 q 130 -161 32 -213 z"},"&":{"x_min":0,"x_max":778,"ha":778,"o":"m 483 529 q 483 491 467 463 q 450 435 420 414 q 391 393 321 365 l 527 178 q 574 274 577 355 l 508 368 l 508 394 l 731 394 l 731 368 l 663 355 q 626 226 568 140 l 679 38 l 760 26 l 760 0 l 592 0 l 508 76 q 458 30 402 10 q 347 -10 281 -10 q 160 -10 99 37 q 38 84 38 174 q 38 221 56 255 q 73 290 104 314 q 134 338 199 363 q 125 434 125 522 q 125 592 172 629 q 219 665 308 665 q 393 665 438 630 q 483 596 483 529 z m 294 32 q 400 32 475 107 l 231 330 q 180 308 157 271 q 134 233 134 179 q 134 108 175 70 q 216 32 294 32 z m 212 532 q 212 453 287 396 q 334 414 355 430 q 376 447 386 472 q 397 496 397 532 q 397 626 308 626 q 257 626 234 603 q 212 579 212 532 z"},"_":{"x_min":0,"x_max":500,"ha":500,"o":"m -8 -129 l -8 -79 l 508 -79 l 508 -129 z"},"v":{"x_min":0,"x_max":500,"ha":500,"o":"m 272 -10 l 236 -10 l 47 425 l 0 437 l 0 459 l 214 459 l 214 437 l 141 424 l 275 107 l 403 425 l 330 437 l 330 459 l 500 459 l 500 437 l 456 427 z"},"O":{"x_min":0,"x_max":722,"ha":722,"o":"m 143 328 q 143 170 196 100 q 249 29 361 29 q 473 29 526 100 q 579 170 579 328 q 579 485 526 554 q 473 623 361 623 q 248 623 196 554 q 143 485 143 328 z m 41 328 q 41 662 361 662 q 519 662 600 577 q 681 493 681 328 q 681 161 599 76 q 517 -10 361 -10 q 205 -10 123 75 q 41 161 41 328 z"},"(":{"x_min":0,"x_max":333,"ha":333,"o":"m 138 241 q 138 114 155 39 q 172 -37 209 -88 q 246 -140 301 -172 l 301 -213 q 204 -162 150 -101 q 95 -40 70 42 q 44 125 44 241 q 44 357 69 439 q 95 521 149 582 q 203 642 301 694 l 301 653 q 241 619 206 565 q 171 512 155 440 q 138 369 138 241 z"},"C":{"x_min":0,"x_max":667,"ha":667,"o":"m 378 -10 q 219 -10 130 77 q 41 164 41 320 q 41 489 126 575 q 212 662 380 662 q 482 662 599 637 l 602 494 l 570 494 l 555 579 q 521 600 476 612 q 431 623 384 623 q 258 623 201 549 q 143 476 143 321 q 143 178 203 103 q 264 28 379 28 q 435 28 484 41 q 533 55 562 77 l 580 175 l 612 175 l 609 21 q 501 -10 378 -10 z"},"W":{"x_min":0,"x_max":944,"ha":944,"o":"m 671 -15 l 645 -15 l 475 436 l 301 -15 l 275 -15 l 58 616 l 1 629 l 1 655 l 251 655 l 251 629 l 155 616 l 311 155 l 487 609 l 509 609 l 679 155 l 827 616 l 725 629 l 725 655 l 942 655 l 942 629 l 885 616 z"},"A":{"x_min":0,"x_max":722,"ha":722,"o":"m 225 26 l 225 0 l 10 0 l 10 26 l 84 39 l 307 660 l 400 660 l 632 39 l 715 26 l 715 0 l 438 0 l 438 26 l 526 39 l 461 228 l 203 228 l 137 39 z m 330 590 l 218 272 l 446 272 z"},"f":{"x_min":0,"x_max":333,"ha":333,"o":"m 110 418 l 31 418 l 31 442 l 110 461 l 110 493 q 110 595 150 649 q 190 704 263 704 q 301 704 333 695 l 333 595 l 309 595 l 287 655 q 271 665 247 665 q 216 665 204 638 q 191 610 191 535 l 191 459 l 313 459 l 313 418 l 191 418 l 191 38 l 290 22 l 290 0 l 42 0 l 42 22 l 110 38 z"},"Q":{"x_min":0,"x_max":722,"ha":722,"o":"m 143 327 q 143 169 196 99 q 249 29 361 29 q 473 29 526 99 q 579 168 579 327 q 579 485 526 554 q 472 623 361 623 q 249 623 196 553 q 143 484 143 327 z m 41 327 q 41 662 361 662 q 518 662 600 577 q 681 493 681 327 q 681 87 508 16 l 532 -14 q 575 -68 605 -91 q 636 -114 665 -114 l 705 -112 l 705 -144 q 694 -149 663 -156 q 632 -162 609 -162 q 574 -162 547 -151 q 521 -139 493 -114 q 466 -89 402 -8 q 384 -10 361 -10 q 204 -10 123 76 q 41 162 41 327 z"},"w":{"x_min":0,"x_max":722,"ha":722,"o":"m 513 -10 l 475 -10 l 362 293 l 250 -10 l 214 -10 l 55 425 l 1 437 l 1 459 l 219 459 l 219 437 l 143 424 l 252 114 l 363 413 l 404 413 l 514 112 l 618 425 l 543 437 l 543 459 l 718 459 l 718 437 l 667 427 z"},"-":{"x_min":0,"x_max":333,"ha":333,"o":"m 37 198 l 37 273 l 297 273 l 297 198 z"},"E":{"x_min":0,"x_max":611,"ha":611,"o":"m 29 26 l 113 39 l 113 616 l 29 629 l 29 655 l 520 655 l 520 498 l 488 498 l 472 604 q 417 611 314 611 l 207 611 l 207 355 l 384 355 l 399 433 l 430 433 l 430 232 l 399 232 l 384 311 l 207 311 l 207 44 l 336 44 q 462 44 501 52 l 529 173 l 561 173 l 552 0 l 29 0 z"},"s":{"x_min":0,"x_max":389,"ha":389,"o":"m 353 129 q 353 61 310 25 q 267 -10 182 -10 q 148 -10 107 -3 q 65 4 42 13 l 42 126 l 64 126 l 88 62 q 125 29 183 29 q 278 29 278 110 q 278 169 203 195 l 160 209 q 110 225 88 242 q 65 258 53 282 q 41 307 41 341 q 41 401 82 436 q 124 471 194 471 q 244 471 320 456 l 320 356 l 297 356 l 276 409 q 250 432 195 432 q 155 432 135 413 q 114 393 114 360 q 114 332 133 313 q 151 294 189 281 q 261 257 283 246 q 305 234 321 218 q 336 202 344 181 q 353 160 353 129 z"},">":{"x_min":0,"x_max":564,"ha":564,"o":"m 51 91 l 51 141 l 446 332 l 51 523 l 51 573 l 516 344 l 516 320 z"},"l":{"x_min":0,"x_max":278,"ha":278,"o":"m 179 34 l 258 22 l 258 0 l 20 0 l 20 22 l 98 34 l 98 660 l 20 672 l 20 694 l 179 694 z"},"8":{"x_min":0,"x_max":500,"ha":500,"o":"m 442 495 q 442 441 416 404 q 390 367 345 347 q 401 327 431 283 q 462 239 462 177 q 462 84 410 37 q 357 -10 247 -10 q 38 -10 38 177 q 38 242 69 284 q 101 327 154 347 q 111 367 85 404 q 58 441 58 495 q 58 576 108 621 q 157 665 251 665 q 342 665 392 621 q 442 577 442 495 z m 374 177 q 374 255 344 290 q 313 325 247 325 q 183 325 154 292 q 126 258 126 177 q 126 94 155 62 q 184 29 247 29 q 312 29 343 63 q 374 97 374 177 z m 354 495 q 354 562 328 594 q 301 626 248 626 q 196 626 171 595 q 146 564 146 495 q 146 427 170 398 q 195 368 248 368 q 303 368 328 398 q 354 428 354 495 z"},"\\":{"x_min":0,"x_max":278,"ha":278,"o":"m 0 659 l 48 659 l 278 -10 l 229 -10 z"},"e":{"x_min":0,"x_max":444,"ha":444,"o":"m 127 231 l 127 222 q 127 155 142 117 q 157 80 188 61 q 219 41 269 41 q 295 41 332 45 q 368 50 391 55 l 391 28 q 368 13 327 1 q 287 -10 245 -10 q 138 -10 89 48 q 39 105 39 233 q 39 353 89 412 q 140 471 233 471 q 409 471 409 271 l 409 231 z m 233 432 q 182 432 155 391 q 128 350 128 270 l 324 270 q 324 357 302 395 q 279 432 233 432 z"},"b":{"x_min":0,"x_max":500,"ha":500,"o":"m 374 242 q 374 332 343 376 q 312 420 246 420 q 217 420 189 415 q 161 410 148 404 l 148 40 q 189 32 246 32 q 313 32 344 85 q 374 138 374 242 z m 67 660 l 0 672 l 0 694 l 148 694 l 148 530 q 148 503 145 433 q 194 471 268 471 q 362 471 412 414 q 462 357 462 242 q 462 119 407 54 q 352 -10 248 -10 q 206 -10 156 0 q 105 9 67 24 z"},"%":{"x_min":0,"x_max":833,"ha":833,"o":"m 215 -10 l 161 -10 l 624 665 l 678 665 z m 352 486 q 352 304 191 304 q 112 304 73 351 q 34 397 34 486 q 34 665 194 665 q 271 665 312 620 q 352 575 352 486 z m 276 486 q 276 560 256 594 q 235 629 191 629 q 148 629 129 596 q 110 564 110 486 q 110 406 129 373 q 149 340 191 340 q 235 340 255 375 q 276 410 276 486 z m 799 169 q 799 -13 638 -13 q 560 -13 520 33 q 481 80 481 169 q 481 256 521 302 q 560 348 641 348 q 719 348 759 303 q 799 258 799 169 z m 723 169 q 723 243 703 278 q 683 312 638 312 q 596 312 576 280 q 557 247 557 169 q 557 89 577 56 q 596 23 638 23 q 682 23 703 58 q 723 93 723 169 z"},"m":{"x_min":0,"x_max":778,"ha":778,"o":"m 159 422 q 196 443 237 457 q 278 471 309 471 q 343 471 371 458 q 400 446 414 418 q 452 439 502 455 q 553 471 586 471 q 703 471 703 336 l 703 34 l 762 22 l 762 0 l 554 0 l 554 22 l 622 34 l 622 327 q 622 411 544 411 q 531 411 514 409 q 498 407 481 405 q 464 402 448 399 q 433 396 423 394 q 431 368 431 336 l 431 34 l 500 22 l 500 0 l 282 0 l 282 22 l 350 34 l 350 327 q 350 368 329 389 q 309 411 267 411 q 224 411 160 397 l 160 34 l 229 22 l 229 0 l 21 0 l 21 22 l 79 34 l 79 425 l 21 437 l 21 459 l 155 459 z"},"#":{"x_min":0,"x_max":500,"ha":500,"o":"m 482 256 l 482 206 l 355 206 l 317 0 l 266 0 l 304 206 l 153 206 l 115 0 l 64 0 l 102 206 l 18 206 l 18 256 l 112 256 l 140 406 l 18 406 l 18 456 l 149 456 l 186 655 l 237 655 l 200 456 l 351 456 l 388 655 l 439 655 l 402 456 l 482 456 l 482 406 l 393 406 l 365 256 z m 163 256 l 314 256 l 342 406 l 191 406 z"},",":{"x_min":0,"x_max":250,"ha":250,"o":"m 187 24 q 187 -43 148 -88 q 109 -133 38 -154 l 38 -116 q 124 -89 124 -34 q 124 -24 117 -17 q 109 -9 91 0 q 58 18 58 49 q 58 75 75 89 q 91 103 117 103 q 148 103 168 81 q 187 58 187 24 z"},"n":{"x_min":0,"x_max":500,"ha":500,"o":"m 158 422 q 196 443 238 457 q 281 471 309 471 q 369 471 399 437 q 429 402 429 336 l 429 34 l 485 22 l 485 0 l 287 0 l 287 22 l 348 34 l 348 327 q 348 368 328 391 q 309 414 267 414 q 223 414 159 400 l 159 34 l 221 22 l 221 0 l 23 0 l 23 22 l 78 34 l 78 425 l 23 437 l 23 459 l 154 459 z"},"h":{"x_min":0,"x_max":500,"ha":500,"o":"m 159 495 q 159 444 156 422 q 191 442 236 457 q 280 471 311 471 q 371 471 401 437 q 431 402 431 336 l 431 34 l 487 22 l 487 0 l 289 0 l 289 22 l 350 34 l 350 330 q 350 414 269 414 q 223 414 159 400 l 159 34 l 221 22 l 221 0 l 20 0 l 20 22 l 78 34 l 78 660 l 10 672 l 10 694 l 159 694 z"},"z":{"x_min":0,"x_max":444,"ha":444,"o":"m 27 0 l 27 22 l 279 420 l 171 420 q 144 420 118 415 q 93 411 83 403 l 68 337 l 45 337 l 45 459 l 384 459 l 384 435 l 132 39 l 266 39 q 294 39 325 46 q 355 52 368 62 l 393 158 l 416 158 l 404 0 z"},"B":{"x_min":0,"x_max":667,"ha":667,"o":"m 468 496 q 468 556 430 583 q 393 611 308 611 l 207 611 l 207 363 l 314 363 q 393 363 430 395 q 468 426 468 496 z m 517 187 q 517 255 471 287 q 425 319 324 319 l 207 319 l 207 44 q 274 41 351 41 q 434 41 476 76 q 517 112 517 187 z m 29 0 l 29 26 l 113 39 l 113 616 l 29 629 l 29 655 l 328 655 q 453 655 510 618 q 568 581 568 501 q 568 443 532 403 q 497 362 433 349 q 521 339 570 297 q 618 255 618 188 q 618 94 553 46 q 488 -3 363 -3 l 154 0 z"},"K":{"x_min":0,"x_max":722,"ha":722,"o":"m 661 655 l 661 629 l 585 616 l 361 397 l 641 39 l 712 26 l 712 0 l 552 0 l 295 331 l 207 260 l 207 39 l 301 26 l 301 0 l 29 0 l 29 26 l 113 39 l 113 616 l 29 629 l 29 655 l 291 655 l 291 629 l 207 616 l 207 308 l 521 616 l 456 629 l 456 655 z"},"R":{"x_min":0,"x_max":667,"ha":667,"o":"m 207 287 l 207 39 l 306 26 l 306 0 l 35 0 l 35 26 l 113 39 l 113 616 l 29 629 l 29 655 l 312 655 q 435 655 493 613 q 552 572 552 480 q 552 415 516 367 q 480 319 417 301 l 595 39 l 666 26 l 666 0 l 509 0 l 325 287 z m 455 473 q 455 548 418 579 q 382 611 291 611 l 207 611 l 207 331 l 293 331 q 381 331 418 364 q 455 396 455 473 z"},"T":{"x_min":0,"x_max":611,"ha":611,"o":"m 154 0 l 154 26 l 258 39 l 258 613 l 233 613 q 109 613 64 603 l 51 501 l 18 501 l 18 655 l 594 655 l 594 501 l 561 501 l 548 603 q 533 606 484 609 q 435 612 376 612 l 352 612 l 352 39 l 456 26 l 456 0 z"},"P":{"x_min":0,"x_max":556,"ha":556,"o":"m 419 461 q 419 542 381 576 q 344 611 255 611 l 207 611 l 207 301 l 258 301 q 340 301 380 338 q 419 376 419 461 z m 207 257 l 207 39 l 311 26 l 311 0 l 35 0 l 35 26 l 113 39 l 113 616 l 29 629 l 29 655 l 276 655 q 516 655 516 462 q 516 361 455 309 q 395 257 281 257 z"},"|":{"x_min":0,"x_max":200,"ha":200,"o":"m 75 -216 l 75 694 l 125 694 l 125 -216 z"},"t":{"x_min":0,"x_max":278,"ha":278,"o":"m 163 -10 q 116 -10 93 18 q 70 46 70 96 l 70 418 l 10 418 l 10 440 l 71 459 l 120 563 l 151 563 l 151 459 l 256 459 l 256 418 l 151 418 l 151 105 q 151 73 165 57 q 180 41 203 41 q 231 41 272 49 l 272 17 q 255 5 223 -2 q 190 -10 163 -10 z"},"M":{"x_min":0,"x_max":889,"ha":889,"o":"m 421 0 l 404 0 l 164 563 l 164 39 l 252 26 l 252 0 l 29 0 l 29 26 l 113 39 l 113 616 l 29 629 l 29 655 l 227 655 l 440 157 l 672 655 l 860 655 l 860 629 l 776 616 l 776 39 l 860 26 l 860 0 l 594 0 l 594 26 l 682 39 l 682 563 z"},"g":{"x_min":0,"x_max":500,"ha":500,"o":"m 425 314 q 425 235 377 194 q 330 154 241 154 q 201 154 167 161 l 136 97 q 138 89 155 82 q 173 74 199 74 l 335 74 q 409 74 445 42 q 481 10 481 -47 q 481 -98 452 -136 q 424 -174 369 -195 q 313 -216 235 -216 q 141 -216 92 -187 q 43 -158 43 -105 q 43 -79 61 -54 q 78 -29 125 5 q 97 14 78 37 q 59 59 59 85 l 136 172 q 59 208 59 314 q 59 389 107 430 q 154 471 245 471 q 263 471 292 468 q 320 464 335 459 l 443 513 l 460 492 l 392 422 q 425 385 425 314 z m 405 -62 q 405 -34 388 -19 q 371 -3 336 -3 l 158 -3 q 138 -21 125 -48 q 112 -75 112 -98 q 112 -140 142 -158 q 172 -177 235 -177 q 316 -177 361 -146 q 405 -116 405 -62 z m 242 191 q 295 191 318 221 q 340 252 340 314 q 340 379 317 406 q 294 434 243 434 q 192 434 168 406 q 144 378 144 314 q 144 250 167 220 q 191 191 242 191 z"},"j":{"x_min":0,"x_max":278,"ha":278,"o":"m 192 609 q 192 587 176 572 q 161 556 139 556 q 117 556 102 572 q 86 587 86 609 q 86 631 102 646 q 117 662 139 662 q 161 662 176 646 q 192 631 192 609 z m 187 -19 q 187 -114 150 -164 q 113 -213 42 -213 q 12 -213 -29 -204 l -29 -107 l -6 -107 l 7 -160 q 23 -174 48 -174 q 77 -174 91 -143 q 106 -112 106 -44 l 106 425 l 37 437 l 37 459 l 187 459 z"},"i":{"x_min":0,"x_max":278,"ha":278,"o":"m 185 609 q 185 587 169 572 q 154 556 132 556 q 110 556 95 572 q 79 587 79 609 q 79 631 95 646 q 110 662 132 662 q 154 662 169 646 q 185 631 185 609 z m 180 34 l 259 22 l 259 0 l 21 0 l 21 22 l 99 34 l 99 425 l 34 437 l 34 459 l 180 459 z"},"y":{"x_min":0,"x_max":500,"ha":500,"o":"m 97 -216 q 59 -216 22 -207 l 22 -108 l 45 -108 l 61 -155 q 76 -166 103 -166 q 128 -166 150 -151 q 171 -137 189 -108 q 207 -79 234 -5 l 59 425 l 12 437 l 12 459 l 225 459 l 225 437 l 153 424 l 277 103 l 397 425 l 325 437 l 325 459 l 496 459 l 496 437 l 448 427 l 269 -29 q 237 -109 214 -145 q 190 -180 162 -198 q 134 -216 97 -216 z"},"@":{"x_min":0,"x_max":921,"ha":921,"o":"m 712 -90 q 643 -144 573 -167 q 503 -190 422 -190 q 312 -190 228 -144 q 145 -98 99 -14 q 53 70 53 177 q 53 315 115 428 q 176 540 284 603 q 392 666 524 666 q 688 666 778 587 q 868 509 868 367 q 868 274 821 193 q 773 111 693 62 q 612 12 525 12 q 493 12 493 37 q 493 62 497 98 q 455 56 414 34 q 373 12 340 12 q 305 12 285 39 q 266 65 266 110 q 266 168 281 223 q 296 279 323 322 q 350 365 391 395 q 432 425 471 436 q 510 447 573 447 l 591 447 q 609 447 633 444 l 577 185 q 573 168 570 140 q 566 112 566 100 q 566 82 575 76 q 584 70 602 70 q 659 70 706 110 q 752 149 780 220 q 807 291 807 366 q 807 489 731 558 q 655 626 521 626 q 407 626 316 571 q 225 515 173 410 q 120 306 120 178 q 120 83 158 9 q 196 -65 268 -107 q 339 -149 437 -149 q 509 -149 570 -130 q 631 -111 696 -65 z m 556 394 l 532 396 q 469 396 426 374 q 383 353 358 288 q 332 224 332 151 q 332 78 371 78 q 398 78 434 93 q 470 108 500 134 z"},".":{"x_min":0,"x_max":250,"ha":250,"o":"m 184 45 q 184 21 167 3 q 150 -14 125 -14 q 100 -14 83 3 q 66 21 66 45 q 66 70 83 87 q 100 104 125 104 q 150 104 167 87 q 184 70 184 45 z"},"p":{"x_min":0,"x_max":500,"ha":500,"o":"m 74 425 l 22 437 l 22 459 l 151 459 l 152 432 q 172 450 207 460 q 241 471 277 471 q 365 471 413 410 q 461 349 461 235 q 461 118 408 54 q 356 -10 257 -10 q 202 -10 152 1 q 155 -34 155 -54 l 155 -178 l 235 -190 l 235 -213 l 16 -213 l 16 -190 l 74 -178 z m 373 235 q 373 329 343 374 q 312 420 250 420 q 193 420 155 404 l 155 37 q 198 29 250 29 q 373 29 373 235 z"},"X":{"x_min":0,"x_max":722,"ha":722,"o":"m 155 39 l 236 26 l 236 0 l 22 0 l 22 26 l 94 39 l 317 335 l 127 616 l 53 629 l 53 655 l 323 655 l 323 629 l 240 616 l 376 414 l 528 616 l 447 629 l 447 655 l 661 655 l 661 629 l 589 616 l 405 371 l 630 39 l 704 26 l 704 0 l 434 0 l 434 26 l 517 39 l 345 293 z"},"*":{"x_min":0,"x_max":500,"ha":500,"o":"m 49 520 l 80 590 l 234 495 l 213 655 l 289 655 l 266 495 l 421 588 l 452 519 l 290 471 l 452 424 l 421 355 l 266 447 l 289 288 l 213 288 l 234 448 l 80 353 l 49 423 l 209 471 z"},"Y":{"x_min":0,"x_max":722,"ha":722,"o":"m 409 258 l 409 39 l 513 26 l 513 0 l 211 0 l 211 26 l 315 39 l 315 255 l 85 616 l 11 629 l 11 655 l 288 655 l 288 629 l 200 616 l 388 314 l 567 616 l 484 629 l 484 655 l 697 655 l 697 629 l 625 616 z"},"c":{"x_min":0,"x_max":444,"ha":444,"o":"m 413 28 q 389 10 347 0 q 305 -10 261 -10 q 38 -10 38 233 q 38 348 95 409 q 152 471 258 471 q 324 471 402 456 l 402 328 l 375 328 l 354 409 q 313 432 257 432 q 126 432 126 233 q 126 129 166 85 q 206 41 289 41 q 360 41 413 57 z"},"!":{"x_min":0,"x_max":333,"ha":333,"o":"m 225 45 q 225 21 208 3 q 191 -14 166 -14 q 141 -14 124 3 q 107 21 107 45 q 107 70 124 87 q 141 104 166 104 q 191 104 208 87 q 225 70 225 45 z m 113 655 l 219 655 l 189 190 l 143 190 z"},"/":{"x_min":0,"x_max":278,"ha":278,"o":"m 49 -10 l 0 -10 l 230 659 l 278 659 z"},"[":{"x_min":0,"x_max":333,"ha":333,"o":"m 74 -134 l 74 694 l 297 694 l 297 671 l 152 651 l 152 -91 l 297 -111 l 297 -134 z"},"6":{"x_min":0,"x_max":500,"ha":500,"o":"m 470 203 q 470 101 419 46 q 367 -10 270 -10 q 160 -10 101 76 q 43 162 43 323 q 43 429 74 505 q 104 582 160 622 q 215 662 288 662 q 359 662 430 645 l 430 532 l 398 532 l 381 599 q 365 608 337 615 q 310 621 288 621 q 217 621 177 552 q 137 483 133 350 q 213 392 293 392 q 379 392 425 344 q 470 295 470 203 z m 268 29 q 327 29 354 67 q 380 105 380 194 q 380 274 355 310 q 330 345 275 345 q 208 345 133 321 q 133 172 167 100 q 200 29 268 29 z"},"r":{"x_min":0,"x_max":333,"ha":333,"o":"m 324 471 l 324 347 l 303 347 l 275 401 q 250 401 217 394 q 184 388 159 377 l 159 34 l 238 22 l 238 0 l 20 0 l 20 22 l 78 34 l 78 425 l 20 437 l 20 459 l 154 459 l 158 402 q 188 426 238 449 q 288 471 317 471 z"},"2":{"x_min":0,"x_max":500,"ha":500,"o":"m 445 0 l 44 0 l 44 72 l 135 154 q 222 231 263 278 q 304 326 322 376 q 340 426 340 491 q 340 555 311 588 q 282 621 217 621 q 191 621 164 614 q 136 607 115 595 l 98 515 l 66 515 l 66 641 q 155 662 217 662 q 324 662 378 617 q 432 573 432 491 q 432 437 411 388 q 390 339 346 291 q 302 243 200 157 q 157 120 108 75 l 445 75 z"},"{":{"x_min":0,"x_max":480,"ha":480,"o":"m 323 -134 q 262 -134 229 -96 q 196 -59 196 10 l 196 154 q 196 211 170 240 q 145 268 91 270 l 91 292 q 196 294 196 407 l 196 551 q 196 620 228 657 q 259 694 323 694 l 389 694 l 389 671 l 359 671 q 314 671 296 644 q 277 618 277 566 l 277 405 q 277 358 251 325 q 226 292 183 282 l 183 281 q 227 271 252 238 q 277 205 277 157 l 277 -6 q 277 -58 296 -84 q 314 -111 359 -111 l 389 -111 l 389 -134 z"},"9":{"x_min":0,"x_max":500,"ha":500,"o":"m 32 455 q 32 554 87 608 q 143 662 243 662 q 355 662 407 582 q 459 501 459 329 q 459 165 392 77 q 325 -10 204 -10 q 125 -10 58 7 l 58 120 l 90 120 l 107 50 q 123 42 149 37 q 175 31 202 31 q 280 31 322 99 q 364 168 369 301 q 294 260 218 260 q 131 260 82 311 q 32 363 32 455 z m 244 623 q 122 623 122 453 q 122 378 151 343 q 181 307 242 307 q 305 307 369 333 q 369 483 340 553 q 310 623 244 623 z"}," ":{"x_min":0,"x_max":250,"ha":250,"o":""},"I":{"x_min":0,"x_max":333,"ha":333,"o":"m 214 39 l 298 26 l 298 0 l 36 0 l 36 26 l 120 39 l 120 616 l 36 629 l 36 655 l 298 655 l 298 629 l 214 616 z"},"H":{"x_min":0,"x_max":722,"ha":722,"o":"m 29 0 l 29 26 l 113 39 l 113 616 l 29 629 l 29 655 l 291 655 l 291 629 l 207 616 l 207 359 l 515 359 l 515 616 l 431 629 l 431 655 l 693 655 l 693 629 l 609 616 l 609 39 l 693 26 l 693 0 l 431 0 l 431 26 l 515 39 l 515 315 l 207 315 l 207 39 l 291 26 l 291 0 z"},"4":{"x_min":0,"x_max":500,"ha":500,"o":"m 396 144 l 396 0 l 312 0 l 312 144 l 20 144 l 20 209 l 339 658 l 396 658 l 396 214 l 484 214 l 484 144 z m 312 543 l 309 543 l 75 214 l 312 214 z"},"~":{"x_min":0,"x_max":541,"ha":541,"o":"m 381 245 q 329 245 261 304 q 225 335 201 349 q 178 363 159 363 q 122 363 103 336 q 83 310 77 245 l 28 245 q 37 336 69 375 q 102 413 159 413 q 187 413 216 399 q 245 385 281 354 q 323 319 344 307 q 364 295 381 295 q 415 295 434 321 q 453 346 462 413 l 512 413 q 504 350 488 316 q 473 282 447 264 q 421 245 381 245 z"},"D":{"x_min":0,"x_max":722,"ha":722,"o":"m 580 332 q 580 469 506 540 q 432 611 295 611 l 207 611 l 207 46 q 266 42 346 42 q 466 42 523 113 q 580 184 580 332 z m 326 655 q 507 655 595 574 q 682 493 682 331 q 682 167 598 83 q 514 -2 346 -2 l 113 0 l 29 0 l 29 26 l 113 39 l 113 616 l 29 629 l 29 655 z"},"^":{"x_min":0,"x_max":469,"ha":469,"o":"m 223 655 l 247 655 l 456 190 l 406 190 l 235 585 l 64 190 l 14 190 z"},"0":{"x_min":0,"x_max":500,"ha":500,"o":"m 462 330 q 462 -10 247 -10 q 144 -10 91 77 q 38 164 38 330 q 38 493 91 579 q 144 665 251 665 q 354 665 408 580 q 462 495 462 330 z m 372 330 q 372 487 342 557 q 312 626 247 626 q 184 626 156 561 q 128 495 128 330 q 128 164 156 96 q 185 29 247 29 q 312 29 342 100 q 372 171 372 330 z"},"F":{"x_min":0,"x_max":556,"ha":556,"o":"m 207 294 l 207 39 l 316 26 l 316 0 l 35 0 l 35 26 l 113 39 l 113 616 l 29 629 l 29 655 l 520 655 l 520 498 l 488 498 l 472 604 q 417 611 314 611 l 207 611 l 207 338 l 400 338 l 415 416 l 445 416 l 445 215 l 415 215 l 400 294 z"},"`":{"x_min":0,"x_max":333,"ha":333,"o":"m 231 546 l 58 677 l 58 695 l 162 695 l 258 562 l 258 546 z"},"k":{"x_min":0,"x_max":500,"ha":500,"o":"m 168 221 l 356 424 l 308 437 l 308 459 l 470 459 l 470 437 l 413 426 l 282 292 l 450 33 l 500 22 l 500 0 l 312 0 l 312 22 l 354 34 l 228 232 l 168 166 l 168 34 l 217 22 l 217 0 l 29 0 l 29 22 l 87 34 l 87 660 l 19 672 l 19 694 l 168 694 z"},"u":{"x_min":0,"x_max":500,"ha":500,"o":"m 153 131 q 153 47 231 47 q 292 47 344 62 l 344 425 l 275 437 l 275 459 l 425 459 l 425 34 l 483 22 l 483 0 l 349 0 l 345 37 q 311 18 265 4 q 220 -10 189 -10 q 72 -10 72 125 l 72 425 l 13 437 l 13 459 l 153 459 z"},"]":{"x_min":0,"x_max":333,"ha":333,"o":"m 36 -134 l 36 -111 l 181 -91 l 181 651 l 36 671 l 36 694 l 259 694 l 259 -134 z"},"U":{"x_min":0,"x_max":722,"ha":722,"o":"m 566 616 l 478 629 l 478 655 l 701 655 l 701 629 l 617 616 l 617 225 q 617 107 552 49 q 488 -10 365 -10 q 234 -10 170 49 q 105 108 105 216 l 105 616 l 21 629 l 21 655 l 283 655 l 283 629 l 199 616 l 199 223 q 199 45 372 45 q 466 45 516 89 q 566 134 566 221 z"},"o":{"x_min":0,"x_max":500,"ha":500,"o":"m 462 232 q 462 -10 247 -10 q 144 -10 91 52 q 38 114 38 232 q 38 348 91 410 q 144 471 251 471 q 355 471 409 411 q 462 351 462 232 z m 374 232 q 374 337 343 385 q 312 432 247 432 q 183 432 155 387 q 126 341 126 232 q 126 121 155 75 q 184 29 247 29 q 312 29 343 77 q 374 125 374 232 z"},"N":{"x_min":0,"x_max":722,"ha":722,"o":"m 564 616 l 476 629 l 476 655 l 699 655 l 699 629 l 615 616 l 615 0 l 568 0 l 164 589 l 164 39 l 252 26 l 252 0 l 29 0 l 29 26 l 113 39 l 113 616 l 29 629 l 29 655 l 227 655 l 564 170 z"},"+":{"x_min":0,"x_max":564,"ha":564,"o":"m 307 307 l 307 99 l 257 99 l 257 307 l 50 307 l 50 357 l 257 357 l 257 565 l 307 565 l 307 357 l 515 357 l 515 307 z"},"G":{"x_min":0,"x_max":722,"ha":722,"o":"m 627 34 q 570 16 509 3 q 448 -10 378 -10 q 219 -10 130 76 q 41 162 41 320 q 41 492 127 577 q 213 662 380 662 q 499 662 610 633 l 610 492 l 577 492 l 564 573 q 530 597 483 610 q 436 623 384 623 q 259 623 201 549 q 143 474 143 321 q 143 177 203 102 q 262 28 379 28 q 420 28 465 38 q 510 47 533 61 l 533 247 l 449 260 l 449 286 l 691 286 l 691 260 l 627 247 z"},"q":{"x_min":0,"x_max":500,"ha":500,"o":"m 397 481 l 431 481 l 431 -178 l 482 -190 l 482 -213 l 287 -213 l 287 -190 l 350 -178 l 350 -51 q 350 -3 355 31 q 303 -10 224 -10 q 36 -10 36 228 q 36 346 89 408 q 142 471 244 471 q 299 471 353 460 z m 124 228 q 124 135 155 88 q 186 41 251 41 q 280 41 308 46 q 336 51 350 57 l 350 423 q 307 431 251 431 q 124 431 124 228 z"},"d":{"x_min":0,"x_max":500,"ha":500,"o":"m 353 34 q 298 -10 224 -10 q 36 -10 36 225 q 36 346 89 408 q 143 471 246 471 q 299 471 353 460 q 350 476 350 541 l 350 660 l 273 672 l 273 694 l 431 694 l 431 34 l 488 22 l 488 0 l 359 0 z m 124 225 q 124 132 155 87 q 187 41 251 41 q 306 41 350 60 l 350 423 q 307 431 251 431 q 124 431 124 225 z"},"1":{"x_min":0,"x_max":500,"ha":500,"o":"m 306 39 l 440 26 l 440 0 l 88 0 l 88 26 l 222 39 l 222 573 l 90 526 l 90 552 l 281 660 l 306 660 z"},"5":{"x_min":0,"x_max":500,"ha":500,"o":"m 237 383 q 350 383 406 336 q 461 290 461 195 q 461 96 401 43 q 341 -10 229 -10 q 136 -10 63 11 l 58 149 l 90 149 l 112 57 q 134 45 164 38 q 194 31 221 31 q 298 31 335 67 q 371 104 371 190 q 371 250 355 281 q 340 312 306 327 q 271 342 214 342 q 169 342 127 330 l 80 330 l 80 655 l 412 655 l 412 580 l 124 580 l 124 371 q 177 383 237 383 z"}}}
